{"title":"Ma&amp;scaron;a ja karu-Väige Olla Pole Kerge Ja Olly Osad EEST","uid":9465691,"size":1137364550,"categoryP":"video","categoryS":"movies","magnet":"?xt=urn:btih:01e17f8aa90dd2ad7b35851320c2a06cdf0bd14d&amp;dn=Ma%26scaron%3Ba+ja+karu-V%26auml%3Bige+Olla+Pole+Kerge+Ja+Olly+Osad+EEST&amp;tr=udp%3A%2F%2Ftracker.openbittorrent.com%3A80&amp;tr=udp%3A%2F%2Fopen.demonii.com%3A1337&amp;tr=udp%3A%2F%2Ftracker.coppersurfer.tk%3A6969&amp;tr=udp%3A%2F%2Fexodus.desync.com%3A6969","seeders":0,"leechers":1,"uploader":"immri","files":1,"time":1389455296,"description":"ormat                                   : AVI\nFormat/Info                              : Audio Video Interleave\nFormat profile                           : OpenDML\nFile size                                : 1.06 GiB\nDuration                                 : 58mn 19s\nOverall bit rate                         : 2 600 Kbps\nWriting application                      : Lavf52.13.0\n\nVideo\nID                                       : 0\nFormat                                   : MPEG-4 Visual\nFormat profile                           : Advanced Simple@L1\nFormat settings, BVOP                    : 2\nFormat settings, QPel                    : No\nFormat settings, GMC                     : No warppoints\nFormat settings, Matrix                  : Default (H.263)\nCodec ID                                 : DX50\nCodec ID/Hint                            : DivX 5\nDuration                                 : 58mn 19s\nBit rate                                 : 2 488 Kbps\nWidth                                    : 720 pixels\nHeight                                   : 432 pixels\nDisplay aspect ratio                     : 1.667\nFrame rate                               : 23.976 fps\nColor space                              : YUV\nChroma subsampling                       : 4:2:0\nBit depth                                : 8 bits\nScan type                                : Progressive\nCompression mode                         : Lossy\nBits/(Pixel*Frame)                       : 0.334\nStream size                              : 1.01 GiB (96%)\nWriting library                          : Lavc51.54.0\n\nAudio\nID                                       : 1\nFormat                                   : MPEG Audio\nFormat version                           : Version 1\nFormat profile                           : Layer 3\nMode                                     : Joint stereo\nCodec ID                                 : 55\nCodec ID/Hint                            : MP3\nDuration                                 : 58mn 17s\nBit rate mode                            : Constant\nBit rate                                 : 96.0 Kbps\nChannel(s)                               : 2 channels\nSampling rate                            : 44.1 KHz\nCompression mode                         : Lossy\nStream size                              : 40.0 MiB (4%)\nAlignment                                : Aligned on interleaves\nInterleave, duration                     : 26 ms (0.63 video frame)\nWriting library                          : LAME3.98 (beta)\n\n","torrent":{"xt":"urn:btih:01e17f8aa90dd2ad7b35851320c2a06cdf0bd14d","amp;dn":"Ma%26scaron%3Ba+ja+karu-V%26auml%3Bige+Olla+Pole+Kerge+Ja+Olly+Osad+EEST","amp;tr":["udp%3A%2F%2Ftracker.openbittorrent.com%3A80","udp%3A%2F%2Fopen.demonii.com%3A1337","udp%3A%2F%2Ftracker.coppersurfer.tk%3A6969","udp%3A%2F%2Fexodus.desync.com%3A6969"],"infoHash":"01e17f8aa90dd2ad7b35851320c2a06cdf0bd14d","infoHashBuffer":{"type":"Buffer","data":[1,225,127,138,169,13,210,173,123,53,133,19,32,194,160,108,223,11,209,77]},"announce":[],"urlList":[]}}